<svg width="738" height="187" viewBox="0 0 738 187" fill="none" xmlns="http://www.w3.org/2000/svg">
<path d="M67.127 147.094L98.6133 41.3438H129.273L82.7324 175H62.5371L67.127 147.094ZM38.1191 41.3438L69.5137 147.094L74.2871 175H53.9082L7.64258 41.3438H38.1191ZM154.334 41.3438H177.65L211.982 139.475L246.314 41.3438H269.631L221.346 175H202.619L154.334 41.3438ZM141.758 41.3438H164.982L169.205 136.996V175H141.758V41.3438ZM258.982 41.3438H282.299V175H254.76V136.996L258.982 41.3438ZM416.23 105.051V111.385C416.23 121.544 414.854 130.662 412.1 138.74C409.346 146.818 405.46 153.703 400.441 159.395C395.423 165.025 389.426 169.339 382.449 172.338C375.534 175.337 367.854 176.836 359.408 176.836C351.024 176.836 343.344 175.337 336.367 172.338C329.452 169.339 323.454 165.025 318.375 159.395C313.296 153.703 309.348 146.818 306.533 138.74C303.779 130.662 302.402 121.544 302.402 111.385V105.051C302.402 94.8307 303.779 85.7122 306.533 77.6953C309.287 69.6172 313.173 62.7324 318.191 57.041C323.271 51.3496 329.268 47.0046 336.184 44.0059C343.16 41.0072 350.84 39.5078 359.225 39.5078C367.67 39.5078 375.35 41.0072 382.266 44.0059C389.242 47.0046 395.24 51.3496 400.258 57.041C405.337 62.7324 409.254 69.6172 412.008 77.6953C414.823 85.7122 416.23 94.8307 416.23 105.051ZM388.416 111.385V104.867C388.416 97.7682 387.773 91.526 386.488 86.1406C385.203 80.7552 383.306 76.2266 380.797 72.5547C378.288 68.8828 375.228 66.1289 371.617 64.293C368.007 62.3958 363.876 61.4473 359.225 61.4473C354.574 61.4473 350.443 62.3958 346.832 64.293C343.283 66.1289 340.253 68.8828 337.744 72.5547C335.296 76.2266 333.43 80.7552 332.145 86.1406C330.859 91.526 330.217 97.7682 330.217 104.867V111.385C330.217 118.423 330.859 124.665 332.145 130.111C333.43 135.497 335.327 140.056 337.836 143.789C340.345 147.461 343.405 150.245 347.016 152.143C350.626 154.04 354.757 154.988 359.408 154.988C364.059 154.988 368.19 154.04 371.801 152.143C375.411 150.245 378.441 147.461 380.889 143.789C383.337 140.056 385.203 135.497 386.488 130.111C387.773 124.665 388.416 118.423 388.416 111.385ZM482.232 147.094L513.719 41.3438H544.379L497.838 175H477.643L482.232 147.094ZM453.225 41.3438L484.619 147.094L489.393 175H469.014L422.748 41.3438H453.225ZM586.146 41.3438V175H558.699V41.3438H586.146ZM701.627 153.52V175H630.484V153.52H701.627ZM639.48 41.3438V175H611.941V41.3438H639.48ZM692.355 95.7793V116.709H630.484V95.7793H692.355ZM701.535 41.3438V62.916H630.484V41.3438H701.535Z" fill="#E50914"/>
</svg>
